<svg width="20" height="20" viewBox="0 0 20 20" fill="none" xmlns="http://www.w3.org/2000/svg">
<path d="M18.3337 9.99984C18.3337 14.6022 14.6027 18.3332 10.0003 18.3332C5.39795 18.3332 1.66699 14.6022 1.66699 9.99984C1.66699 5.39746 5.39795 1.6665 10.0003 1.6665C14.6027 1.6665 18.3337 5.39746 18.3337 9.99984Z" fill="#535353"/>
<path fill-rule="evenodd" clip-rule="evenodd" d="M10.0003 6.0415C10.3455 6.0415 10.6253 6.32133 10.6253 6.6665V9.74095L12.5256 11.6412C12.7697 11.8853 12.7697 12.281 12.5256 12.5251C12.2815 12.7692 11.8858 12.7692 11.6417 12.5251L9.55838 10.4418C9.44117 10.3246 9.37533 10.1656 9.37533 9.99984V6.6665C9.37533 6.32133 9.65515 6.0415 10.0003 6.0415Z" fill="white"/>
</svg>
