<svg width="40" height="40" viewBox="0 0 40 40" fill="none" xmlns="http://www.w3.org/2000/svg">
<path d="M15.744 25.6626C15.1894 25.2515 14.4066 25.3679 13.9955 25.9225C13.5844 26.4771 13.7007 27.2599 14.2553 27.671C15.876 28.8723 17.8581 29.5835 19.9997 29.5835C22.1413 29.5835 24.1233 28.8723 25.744 27.671C26.2986 27.2599 26.415 26.4771 26.0039 25.9225C25.5928 25.3679 24.8099 25.2515 24.2553 25.6626C23.0414 26.5624 21.5762 27.0835 19.9997 27.0835C18.4232 27.0835 16.9579 26.5624 15.744 25.6626Z" fill="#080808"/>
<path fill-rule="evenodd" clip-rule="evenodd" d="M19.9997 2.0835C18.8195 2.0835 17.7472 2.42153 16.5839 2.98723C15.4594 3.53407 14.1604 4.34031 12.5378 5.34737L9.09348 7.48499C7.55815 8.43784 6.32875 9.20083 5.38117 9.92651C4.39992 10.678 3.64625 11.4433 3.10186 12.4379C2.5586 13.4304 2.31395 14.4864 2.19666 15.7347C2.08298 16.9444 2.08299 18.4237 2.08301 20.2789V22.9666C2.08298 26.1397 2.08297 28.6445 2.33751 30.6028C2.59863 32.6118 3.14728 34.2336 4.38694 35.5159C5.63231 36.8041 7.2171 37.3796 9.17902 37.6524C11.0805 37.9169 13.5089 37.9169 16.5694 37.9168H23.4298C26.4903 37.9169 28.9189 37.9169 30.8203 37.6524C32.7822 37.3796 34.367 36.8041 35.6124 35.5159C36.8521 34.2336 37.4007 32.6118 37.6618 30.6028C37.9164 28.6445 37.9164 26.1397 37.9163 22.9666V20.2788C37.9164 18.4237 37.9164 16.9444 37.8027 15.7347C37.6854 14.4864 37.4408 13.4304 36.8975 12.4379C36.3531 11.4433 35.5994 10.678 34.6182 9.92651C33.6706 9.20084 32.4412 8.43786 30.9059 7.48502L27.4616 5.34735C25.839 4.34031 24.5399 3.53407 23.4154 2.98723C22.2521 2.42153 21.1799 2.0835 19.9997 2.0835ZM13.7989 7.50703C15.4918 6.45634 16.6822 5.71939 17.6772 5.23549C18.6467 4.76404 19.3333 4.5835 19.9997 4.5835C20.666 4.5835 21.3526 4.76404 22.3221 5.23549C23.3172 5.71938 24.5075 6.45634 26.2005 7.50702L29.5338 9.57578C31.1352 10.5697 32.2595 11.2691 33.0981 11.9113C33.9141 12.5362 34.3836 13.0519 34.7045 13.6383C35.0266 14.2267 35.2146 14.9146 35.3137 15.9686C35.4151 17.0478 35.4163 18.4099 35.4163 20.34V22.8751C35.4163 26.16 35.4139 28.5021 35.1827 30.2806C34.9557 32.0274 34.528 33.0408 33.815 33.7783C33.1078 34.5098 32.1449 34.9442 30.476 35.1763C28.7666 35.414 26.5122 35.4168 23.333 35.4168H16.6663C13.4871 35.4168 11.2327 35.414 9.52338 35.1763C7.85444 34.9442 6.89157 34.5098 6.18432 33.7783C5.47136 33.0408 5.0437 32.0274 4.81666 30.2806C4.58549 28.5021 4.58301 26.16 4.58301 22.8751V20.34C4.58301 18.4099 4.58428 17.0478 4.68569 15.9686C4.78473 14.9146 4.97275 14.2267 5.29483 13.6383C5.61576 13.0519 6.08522 12.5362 6.90121 11.9113C7.73984 11.2691 8.86417 10.5697 10.4656 9.57579L13.7989 7.50703Z" fill="#080808"/>
</svg>
