<svg width="40" height="40" viewBox="0 0 40 40" fill="none" xmlns="http://www.w3.org/2000/svg">
<path fill-rule="evenodd" clip-rule="evenodd" d="M7.87896 4.5209C8.38795 4.02223 9.10257 3.6971 10.452 3.51935C11.8412 3.33637 13.6823 3.3335 16.3222 3.3335H23.6785C26.3183 3.3335 28.1595 3.33637 29.5486 3.51935C30.8981 3.6971 31.6127 4.02223 32.1217 4.5209C32.6307 5.01957 32.9625 5.7197 33.144 7.04182C33.3307 8.40281 33.3337 10.2066 33.3337 12.793V25.856L12.243 25.856C10.7387 25.8555 9.71226 25.8552 8.83197 26.0863C8.04488 26.2929 7.31478 26.6304 6.66699 27.0739V12.793C6.66699 10.2066 6.66992 8.40281 6.85669 7.04182C7.03812 5.7197 7.36997 5.01957 7.87896 4.5209ZM12.644 9.6398C11.8822 9.6398 11.2647 10.2448 11.2647 10.9912C11.2647 11.7375 11.8822 12.3425 12.644 12.3425H27.3566C28.1184 12.3425 28.736 11.7375 28.736 10.9912C28.736 10.2448 28.1184 9.6398 27.3566 9.6398H12.644ZM11.2647 17.2975C11.2647 16.5511 11.8822 15.9461 12.644 15.9461H21.8394C22.6012 15.9461 23.2187 16.5511 23.2187 17.2975C23.2187 18.0438 22.6012 18.6488 21.8394 18.6488H12.644C11.8822 18.6488 11.2647 18.0438 11.2647 17.2975Z" fill="#080808"/>
<path d="M12.456 28.5587C10.6569 28.5587 10.0279 28.5703 9.54595 28.6969C8.22307 29.0441 7.16847 30.0076 6.7162 31.2598C6.74416 31.8972 6.78798 32.4578 6.85669 32.9585C7.03812 34.2806 7.36997 34.9808 7.87896 35.4794C8.38795 35.9781 9.10257 36.3032 10.452 36.481C11.8412 36.664 13.6823 36.6668 16.3222 36.6668H23.6785C26.3183 36.6668 28.1595 36.664 29.5486 36.481C30.8981 36.3032 31.6127 35.9781 32.1217 35.4794C32.4827 35.1257 32.7546 34.6706 32.947 33.9641H12.644C11.8822 33.9641 11.2647 33.3591 11.2647 32.6128C11.2647 31.8664 11.8822 31.2614 12.644 31.2614H33.2844C33.3185 30.4848 33.329 29.5941 33.3322 28.5587H12.456Z" fill="#080808"/>
</svg>
