<svg width="40" height="40" viewBox="0 0 40 40" fill="none" xmlns="http://www.w3.org/2000/svg">
<path fill-rule="evenodd" clip-rule="evenodd" d="M19.9989 13.7502C16.5471 13.7502 13.7489 16.5484 13.7489 20.0002C13.7489 23.4519 16.5471 26.2502 19.9989 26.2502C23.4506 26.2502 26.2489 23.4519 26.2489 20.0002C26.2489 16.5484 23.4506 13.7502 19.9989 13.7502ZM16.2489 20.0002C16.2489 17.9291 17.9278 16.2502 19.9989 16.2502C22.0699 16.2502 23.7489 17.9291 23.7489 20.0002C23.7489 22.0712 22.0699 23.7502 19.9989 23.7502C17.9278 23.7502 16.2489 22.0712 16.2489 20.0002Z" fill="#080808"/>
<path fill-rule="evenodd" clip-rule="evenodd" d="M19.9568 2.0835C19.216 2.08348 18.5976 2.08347 18.0899 2.11811C17.5614 2.15417 17.0622 2.23191 16.5782 2.43238C15.4552 2.89756 14.5629 3.78982 14.0977 4.91287C13.8556 5.49752 13.79 6.11369 13.7649 6.78344C13.7448 7.32182 13.4731 7.77101 13.0721 8.00251C12.6711 8.23401 12.1463 8.24471 11.67 7.99296C11.0774 7.67978 10.511 7.42849 9.88358 7.34589C8.67841 7.18722 7.45956 7.51381 6.49518 8.25381C6.07958 8.57271 5.76265 8.96617 5.46717 9.40583C5.18333 9.82819 4.87414 10.3637 4.50376 11.0053L4.46167 11.0782C4.09128 11.7197 3.78207 12.2552 3.55823 12.7122C3.32521 13.1879 3.14293 13.6591 3.07455 14.1785C2.91588 15.3837 3.24247 16.6025 3.98247 17.5669C4.36766 18.0689 4.86841 18.4338 5.43581 18.7903C5.89211 19.077 6.14532 19.537 6.1453 20.0001C6.14527 20.4632 5.89206 20.9232 5.43582 21.2098C4.86834 21.5664 4.36754 21.9313 3.9823 22.4333C3.24231 23.3977 2.91572 24.6165 3.07439 25.8217C3.14276 26.3411 3.32504 26.8123 3.55807 27.288C3.78191 27.745 4.09111 28.2805 4.46149 28.922L4.5036 28.9949C4.87397 29.6365 5.18316 30.172 5.46701 30.5944C5.76249 31.034 6.07941 31.4275 6.49502 31.7464C7.4594 32.4864 8.67824 32.813 9.88342 32.6543C10.5108 32.5717 11.0772 32.3205 11.6697 32.0073C12.1461 31.7555 12.671 31.7662 13.072 31.9978C13.4731 32.2293 13.7448 32.6785 13.7649 33.217C13.79 33.8867 13.8556 34.5028 14.0977 35.0875C14.5629 36.2105 15.4552 37.1028 16.5782 37.5679C17.0622 37.7684 17.5614 37.8462 18.0899 37.8822C18.5976 37.9169 19.216 37.9168 19.9567 37.9168H20.0409C20.7817 37.9168 21.4001 37.9169 21.9078 37.8822C22.4363 37.8462 22.9355 37.7684 23.4195 37.5679C24.5425 37.1028 25.4348 36.2105 25.9 35.0875C26.1421 34.5028 26.2077 33.8866 26.2328 33.2168C26.2529 32.6785 26.5246 32.2292 26.9256 31.9977C27.3266 31.7662 27.8515 31.7554 28.3279 32.0072C28.9204 32.3204 29.4867 32.5716 30.1141 32.6542C31.3193 32.8129 32.5381 32.4863 33.5025 31.7463C33.9181 31.4274 34.235 31.0339 34.5305 30.5943C34.8144 30.1719 35.1235 29.6364 35.4939 28.9949L35.536 28.922C35.9064 28.2805 36.2156 27.7449 36.4395 27.2879C36.6725 26.8122 36.8548 26.341 36.9231 25.8216C37.0818 24.6164 36.7552 23.3976 36.0152 22.4332C35.63 21.9312 35.1292 21.5663 34.5618 21.2098C34.1055 20.9231 33.8524 20.4631 33.8524 20.0001C33.8524 19.5371 34.1056 19.0772 34.5618 18.7906C35.1293 18.434 35.6301 18.0691 36.0154 17.567C36.7554 16.6026 37.082 15.3838 36.9233 14.1786C36.8549 13.6593 36.6726 13.1881 36.4396 12.7123C36.2158 12.2554 35.9066 11.7199 35.5363 11.0784L35.4941 11.0055C35.1238 10.3639 34.8145 9.8283 34.5307 9.40595C34.2352 8.96628 33.9183 8.57282 33.5027 8.25392C32.5383 7.51392 31.3194 7.18734 30.1143 7.346C29.4869 7.4286 28.9205 7.67986 28.328 7.99302C27.8516 8.2448 27.3267 8.2341 26.9257 8.00257C26.5246 7.77104 26.2529 7.32179 26.2328 6.78334C26.2077 6.11364 26.1421 5.4975 25.9 4.91287C25.4348 3.78982 24.5425 2.89756 23.4195 2.43238C22.9355 2.23191 22.4363 2.15417 21.9078 2.11811C21.4001 2.08347 20.7817 2.08348 20.0409 2.0835H19.9568ZM17.5349 4.74208C17.6635 4.68882 17.8589 4.63969 18.2601 4.61231C18.6725 4.58417 19.2052 4.5835 19.9988 4.5835C20.7925 4.5835 21.3252 4.58417 21.7376 4.61231C22.1388 4.63969 22.3342 4.68882 22.4628 4.74208C22.9732 4.95353 23.3788 5.3591 23.5903 5.86957C23.657 6.0306 23.7122 6.28162 23.7345 6.87678C23.7839 8.19741 24.4655 9.46898 25.6757 10.1676C26.8858 10.8663 28.3278 10.8208 29.4962 10.2033C30.0228 9.92499 30.2678 9.84736 30.4406 9.82461C30.9884 9.75249 31.5424 9.90094 31.9808 10.2373C32.0912 10.322 32.2314 10.4667 32.4557 10.8004C32.6863 11.1435 32.9532 11.6045 33.3501 12.2918C33.7469 12.9792 34.0126 13.4408 34.1945 13.8121C34.3714 14.1732 34.4265 14.367 34.4447 14.5049C34.5168 15.0528 34.3684 15.6068 34.032 16.0451C33.9259 16.1834 33.7361 16.3568 33.2317 16.6737C32.1128 17.3768 31.3525 18.6027 31.3524 20C31.3523 21.3973 32.1127 22.6235 33.2317 23.3266C33.736 23.6434 33.9257 23.8168 34.0318 23.9551C34.3682 24.3934 34.5167 24.9475 34.4445 25.4953C34.4264 25.6333 34.3712 25.827 34.1943 26.1882C34.0125 26.5594 33.7467 27.021 33.3499 27.7084C32.9531 28.3957 32.6862 28.8567 32.4556 29.1998C32.2313 29.5336 32.091 29.6782 31.9806 29.7629C31.5423 30.0993 30.9882 30.2477 30.4404 30.1756C30.2676 30.1529 30.0226 30.0752 29.4961 29.7969C28.3276 29.1794 26.8855 29.134 25.6754 29.8327C24.4655 30.5314 23.7839 31.8029 23.7345 33.1234C23.7123 33.7187 23.657 33.9697 23.5903 34.1308C23.3788 34.6412 22.9732 35.0468 22.4628 35.2582C22.3342 35.3115 22.1388 35.3606 21.7376 35.388C21.3252 35.4162 20.7925 35.4168 19.9988 35.4168C19.2052 35.4168 18.6725 35.4162 18.2601 35.388C17.8589 35.3606 17.6635 35.3115 17.5349 35.2582C17.0244 35.0468 16.6189 34.6412 16.4074 34.1308C16.3407 33.9697 16.2854 33.7187 16.2632 33.1235C16.2138 31.8029 15.5321 30.5314 14.322 29.8327C13.1119 29.134 11.6699 29.1795 10.5015 29.797C9.97494 30.0753 9.72991 30.153 9.55711 30.1757C9.0093 30.2478 8.45528 30.0994 8.01692 29.763C7.9065 29.6783 7.76627 29.5337 7.54196 29.1999C7.31137 28.8568 7.04446 28.3958 6.64762 27.7085C6.25079 27.0212 5.98505 26.5595 5.8032 26.1883C5.6263 25.8271 5.57116 25.6334 5.553 25.4954C5.48088 24.9476 5.62933 24.3936 5.96569 23.9552C6.07179 23.8169 6.26154 23.6435 6.76586 23.3267C7.88483 22.6236 8.64522 21.3975 8.6453 20.0003C8.64537 18.6028 7.88495 17.3766 6.76588 16.6735C6.26167 16.3567 6.07194 16.1833 5.96585 16.045C5.62949 15.6067 5.48104 15.0526 5.55316 14.5048C5.57133 14.3668 5.62646 14.1731 5.80336 13.8119C5.98521 13.4407 6.25095 12.9791 6.64778 12.2917C7.04462 11.6044 7.31153 11.1434 7.54212 10.8003C7.76644 10.4665 7.90666 10.3219 8.01708 10.2372C8.45544 9.90083 9.00946 9.75238 9.55727 9.8245C9.73008 9.84725 9.97513 9.92489 10.5017 10.2032C11.6701 10.8207 13.112 10.8662 14.3221 10.1676C15.5322 9.46896 16.2138 8.19745 16.2632 6.87686C16.2854 6.28164 16.3407 6.03061 16.4074 5.86957C16.6189 5.3591 17.0244 4.95353 17.5349 4.74208Z" fill="#080808"/>
</svg>
