<svg width="40" height="40" viewBox="0 0 40 40" fill="none" xmlns="http://www.w3.org/2000/svg">
<path fill-rule="evenodd" clip-rule="evenodd" d="M12.3917 2.0835C11.4417 2.08347 10.6351 2.08344 9.96859 2.15236C9.2589 2.22573 8.60303 2.38507 7.98341 2.76802C7.36378 3.15096 6.92795 3.66634 6.54494 4.26829C6.18521 4.83365 5.82454 5.55506 5.39973 6.40474L5.37224 6.45972C5.35603 6.49213 5.34125 6.52523 5.32792 6.55893L2.98856 12.4725C2.7102 13.1762 2.40173 14.054 2.31153 14.9523C2.21926 15.8711 2.34588 16.9237 3.06581 17.8367C3.90301 18.8983 5.20487 19.5835 6.66608 19.5835C7.97944 19.5835 9.16378 19.0311 9.99942 18.1459C10.8351 19.0311 12.0194 19.5835 13.3327 19.5835C14.6461 19.5835 15.8304 19.0311 16.6661 18.1459C17.5017 19.0311 18.6861 19.5835 19.9994 19.5835C21.3128 19.5835 22.4971 19.0311 23.3328 18.1459C24.1684 19.0311 25.3527 19.5835 26.6661 19.5835C27.9794 19.5835 29.1638 19.0311 29.9994 18.1459C30.8351 19.0311 32.0194 19.5835 33.3327 19.5835C34.794 19.5835 36.0959 18.8983 36.9331 17.8367C37.6531 16.9237 37.7797 15.8711 37.6874 14.9523C37.5972 14.054 37.2888 13.1762 37.0104 12.4725L34.6711 6.55893C34.6577 6.52523 34.6429 6.49213 34.6267 6.45973L34.5993 6.40483C34.1745 5.55511 33.8138 4.83367 33.454 4.26829C33.071 3.66634 32.6352 3.15096 32.0156 2.76802C31.3959 2.38507 30.7401 2.22573 30.0304 2.15236C29.3638 2.08344 28.5573 2.08347 27.6074 2.0835H12.3917ZM13.3327 17.0835C12.1822 17.0835 11.2494 16.1508 11.2494 15.0002C11.2494 14.3098 10.6898 13.7502 9.99942 13.7502C9.30906 13.7502 8.74941 14.3098 8.74941 15.0002C8.74941 16.1508 7.81668 17.0835 6.66608 17.0835C6.00282 17.0835 5.4124 16.775 5.02887 16.2886C4.839 16.0478 4.74717 15.7184 4.79902 15.2021C4.85293 14.6652 5.05114 14.0548 5.31327 13.3921L7.63262 7.52914C8.07882 6.6369 8.37699 6.04598 8.65417 5.61037C8.92079 5.19133 9.11185 5.00953 9.29773 4.89464C9.48362 4.77976 9.73167 4.69018 10.2257 4.6391C10.7486 4.58504 11.4251 4.5835 12.4531 4.5835H27.5459C28.5739 4.5835 29.2504 4.58504 29.7733 4.6391C30.2673 4.69018 30.5154 4.77976 30.7012 4.89464C30.8871 5.00953 31.0782 5.19133 31.3448 5.61037C31.622 6.04597 31.9202 6.6369 32.3664 7.52915L34.6857 13.3921C34.9478 14.0548 35.146 14.6652 35.1999 15.2021C35.2518 15.7184 35.16 16.0478 34.9701 16.2886C34.5865 16.775 33.996 17.0835 33.3327 17.0835C32.1822 17.0835 31.2494 16.1508 31.2494 15.0002C31.2494 14.3098 30.6898 13.7502 29.9994 13.7502C29.3091 13.7502 28.7494 14.3098 28.7494 15.0002C28.7494 16.1508 27.8167 17.0835 26.6661 17.0835C25.5155 17.0835 24.5828 16.1508 24.5828 15.0002C24.5828 14.3098 24.0231 13.7502 23.3328 13.7502C22.6424 13.7502 22.0827 14.3098 22.0827 15.0002C22.0827 16.1508 21.15 17.0835 19.9994 17.0835C18.8488 17.0835 17.9161 16.1508 17.9161 15.0002C17.9161 14.3098 17.3564 13.7502 16.6661 13.7502C15.9757 13.7502 15.4161 14.3098 15.4161 15.0002C15.4161 16.1508 14.4833 17.0835 13.3327 17.0835Z" fill="#080808"/>
<path d="M32.9162 25.0002C32.9162 24.3098 32.3566 23.7502 31.6662 23.7502C30.9759 23.7502 30.4162 24.3098 30.4162 25.0002V35.4168H9.58289V25.0002C9.58289 24.3098 9.02325 23.7502 8.33289 23.7502C7.64254 23.7502 7.08289 24.3098 7.08289 25.0002V35.4168H4.99956C4.3092 35.4168 3.74956 35.9765 3.74956 36.6668C3.74956 37.3572 4.3092 37.9168 4.99956 37.9168H34.9996C35.6899 37.9168 36.2496 37.3572 36.2496 36.6668C36.2496 35.9765 35.6899 35.4168 34.9996 35.4168H32.9162V25.0002Z" fill="#080808"/>
</svg>
