<svg width="168" height="52" viewBox="0 0 168 52" fill="none" xmlns="http://www.w3.org/2000/svg">
<path d="M69.376 28.696C69.9307 30.7013 71.4347 31.704 73.888 31.704C75.4667 31.704 76.6613 31.1707 77.472 30.104L80.8 32.024C79.2213 34.3067 76.896 35.448 73.824 35.448C71.1787 35.448 69.056 34.648 67.456 33.048C65.856 31.448 65.056 29.432 65.056 27C65.056 24.5893 65.8453 22.584 67.424 20.984C69.0027 19.3627 71.0293 18.552 73.504 18.552C75.8507 18.552 77.7813 19.3627 79.296 20.984C80.832 22.6053 81.6 24.6107 81.6 27C81.6 27.5333 81.5467 28.0987 81.44 28.696H69.376ZM69.312 25.496H77.472C77.2373 24.408 76.7467 23.5973 76 23.064C75.2747 22.5307 74.4427 22.264 73.504 22.264C72.3947 22.264 71.4773 22.552 70.752 23.128C70.0267 23.6827 69.5467 24.472 69.312 25.496ZM106.925 19V35H102.797V22.968H98.093V35H93.965V22.968H89.229V35H85.101V22.968H82.797V19H85.101V18.84C85.101 16.5787 85.7303 14.8613 86.989 13.688C88.2477 12.5147 90.125 12.0027 92.621 12.152V16.12C90.3597 15.9493 89.229 16.856 89.229 18.84V19H93.965V18.52C93.965 14.0613 96.4717 11.832 101.485 11.832C102.637 11.832 103.896 11.9813 105.261 12.28V16.056C103.789 15.8853 102.53 15.8 101.485 15.8C100.354 15.8 99.501 16.0027 98.925 16.408C98.3703 16.792 98.093 17.496 98.093 18.52V19H106.925ZM118.317 18.552C120.066 18.552 121.506 19.1387 122.637 20.312C123.789 21.4853 124.365 23.1067 124.365 25.176V35H120.237V25.688C120.237 24.6213 119.949 23.8107 119.373 23.256C118.797 22.68 118.029 22.392 117.069 22.392C116.002 22.392 115.149 22.7227 114.509 23.384C113.869 24.0453 113.549 25.0373 113.549 26.36V35H109.421V19H113.549V20.792C114.551 19.2987 116.141 18.552 118.317 18.552ZM128.657 17.08C127.975 17.08 127.377 16.8347 126.865 16.344C126.375 15.832 126.129 15.2347 126.129 14.552C126.129 13.8693 126.375 13.272 126.865 12.76C127.377 12.248 127.975 11.992 128.657 11.992C129.361 11.992 129.959 12.248 130.449 12.76C130.961 13.272 131.217 13.8693 131.217 14.552C131.217 15.2347 130.961 15.832 130.449 16.344C129.959 16.8347 129.361 17.08 128.657 17.08ZM126.609 35V19H130.737V35H126.609ZM143.668 22.968H140.052V29.624C140.052 30.1787 140.19 30.584 140.468 30.84C140.745 31.096 141.15 31.2453 141.684 31.288C142.217 31.3093 142.878 31.2987 143.668 31.256V35C140.83 35.32 138.825 35.0533 137.652 34.2C136.5 33.3467 135.924 31.8213 135.924 29.624V22.968H133.14V19H135.924V15.768L140.052 14.52V19H143.668V22.968ZM157.354 19H161.77L155.946 35C155.114 37.304 154.004 38.968 152.618 39.992C151.252 41.0373 149.546 41.5067 147.498 41.4V37.56C148.607 37.5813 149.482 37.3467 150.122 36.856C150.783 36.3653 151.306 35.576 151.69 34.488L145.13 19H149.642L153.802 29.752L157.354 19ZM165.148 34.616C164.615 35.1493 163.975 35.416 163.228 35.416C162.481 35.416 161.841 35.1493 161.308 34.616C160.775 34.0827 160.508 33.4427 160.508 32.696C160.508 31.9493 160.775 31.3093 161.308 30.776C161.841 30.2427 162.481 29.976 163.228 29.976C163.975 29.976 164.615 30.2427 165.148 30.776C165.681 31.3093 165.948 31.9493 165.948 32.696C165.948 33.4427 165.681 34.0827 165.148 34.616Z" fill="#080808"/>
<path d="M41.7562 18.5591L35.7404 25.9541L32.6629 22.1712C31.2244 20.4061 29.0679 19.379 26.7883 19.379H15.9647C12.1213 19.379 8.94348 22.2463 8.46016 25.9541C8.41921 25.6306 8.39648 25.3026 8.39648 24.9679V13.79C8.39648 9.61322 11.786 6.22887 15.9647 6.22887H35.8817C42.2555 6.22887 45.7751 13.6169 41.7562 18.5591Z" fill="#4D37C9"/>
<path d="M35.7411 25.9541L32.6637 29.7371C31.2252 31.5044 29.0687 32.5293 26.7891 32.5293H15.9655C12.1221 32.5293 8.94426 29.6642 8.46094 25.9541C8.94426 22.2463 12.1221 19.379 15.9655 19.379H26.7891C29.0687 19.379 31.2252 20.4061 32.6637 22.1712L35.7411 25.9541Z" fill="#7C71F4"/>
<path d="M35.8817 45.6816H15.9647C11.7863 45.6816 8.39648 42.295 8.39648 38.118V26.9404C8.39648 26.6054 8.41921 26.2774 8.46016 25.9542C8.94348 29.664 12.1213 32.5291 15.9647 32.5291H26.7883C29.0679 32.5291 31.2244 31.5042 32.6629 29.7371L35.7404 25.9542L41.7562 33.3492C45.7751 38.2911 42.2555 45.6816 35.8817 45.6816Z" fill="#583AFE"/>
</svg>
