<svg width="52" height="52" viewBox="0 0 52 52" fill="none" xmlns="http://www.w3.org/2000/svg">
<path d="M41.7553 18.5601L35.7394 25.9551L32.6619 22.1722C31.2234 20.407 29.0669 19.3799 26.7874 19.3799H15.9637C12.1203 19.3799 8.94251 22.2472 8.45919 25.9551C8.41823 25.6316 8.39551 25.3036 8.39551 24.9689V13.791C8.39551 9.6142 11.7851 6.22985 15.9637 6.22985H35.8807C42.2546 6.22985 45.7742 13.6179 41.7553 18.5601Z" fill="#4D37C9"/>
<path d="M35.7392 25.9541L32.6617 29.7371C31.2232 31.5044 29.0667 32.5293 26.7872 32.5293H15.9635C12.1201 32.5293 8.94231 29.6642 8.45898 25.9541C8.94231 22.2463 12.1201 19.379 15.9635 19.379H26.7872C29.0667 19.379 31.2232 20.4061 32.6617 22.1712L35.7392 25.9541Z" fill="#7C71F4"/>
<path d="M35.8807 45.6826H15.9637C11.7853 45.6826 8.39551 42.296 8.39551 38.119V26.9413C8.39551 26.6064 8.41823 26.2784 8.45919 25.9551C8.94251 29.665 12.1203 32.5301 15.9637 32.5301H26.7874C29.0669 32.5301 31.2234 31.5052 32.6619 29.7381L35.7394 25.9551L41.7553 33.3501C45.7742 38.2921 42.2546 45.6826 35.8807 45.6826Z" fill="#583AFE"/>
</svg>
