<svg width="64" height="64" viewBox="0 0 64 64" fill="none" xmlns="http://www.w3.org/2000/svg">
<path fill-rule="evenodd" clip-rule="evenodd" d="M58.6673 32.0007C58.6673 46.7282 46.7282 58.6673 32.0007 58.6673C17.2731 58.6673 5.33398 46.7282 5.33398 32.0007C5.33398 17.2731 17.2731 5.33398 32.0007 5.33398C46.7282 5.33398 58.6673 17.2731 58.6673 32.0007ZM42.7482 23.9198C43.5292 24.7008 43.5292 25.9671 42.7482 26.7482L29.4149 40.0815C28.6338 40.8626 27.3675 40.8626 26.5864 40.0815L21.2531 34.7482C20.4721 33.9672 20.4721 32.7008 21.2531 31.9198C22.0342 31.1387 23.3005 31.1387 24.0815 31.9198L28.0007 35.8389L33.9602 29.8793L39.9198 23.9198C40.7008 23.1387 41.9671 23.1387 42.7482 23.9198Z" fill="#47B881"/>
</svg>
