<svg width="40" height="40" viewBox="0 0 40 40" fill="none" xmlns="http://www.w3.org/2000/svg">
<path d="M24.9086 2.0835C22.6293 2.08346 20.7921 2.08344 19.3471 2.2777C17.8469 2.4794 16.5838 2.91089 15.5806 3.91408C14.7057 4.78896 14.2637 5.86409 14.0316 7.12742C13.8061 8.35502 13.763 9.85733 13.7529 11.6599C13.7491 12.3502 14.3056 12.913 14.996 12.9168C15.6863 12.9207 16.2491 12.3641 16.2529 11.6738C16.2631 9.85129 16.3104 8.55949 16.4905 7.57908C16.664 6.63439 16.9426 6.0876 17.3484 5.68185C17.8097 5.22058 18.4573 4.91983 19.6802 4.75541C20.9392 4.58615 22.6077 4.5835 25 4.5835H26.6667C29.0591 4.5835 30.7276 4.58615 31.9865 4.75541C33.2095 4.91983 33.8571 5.22058 34.3184 5.68185C34.7796 6.14312 35.0804 6.79074 35.2448 8.0137C35.414 9.27262 35.4167 10.9411 35.4167 13.3335V26.6668C35.4167 29.0592 35.414 30.7277 35.2448 31.9866C35.0804 33.2096 34.7796 33.8572 34.3184 34.3185C33.8571 34.7798 33.2095 35.0805 31.9865 35.2449C30.7276 35.4142 29.0591 35.4168 26.6667 35.4168H25C22.6077 35.4168 20.9392 35.4142 19.6802 35.2449C18.4573 35.0805 17.8097 34.7798 17.3484 34.3185C16.9426 33.9127 16.664 33.3659 16.4905 32.4213C16.3104 31.4408 16.2631 30.149 16.2529 28.3265C16.2491 27.6362 15.6863 27.0797 14.996 27.0835C14.3056 27.0874 13.7491 27.6501 13.7529 28.3405C13.763 30.143 13.8061 31.6453 14.0316 32.8729C14.2637 34.1362 14.7057 35.2114 15.5806 36.0863C16.5838 37.0894 17.8469 37.5209 19.3471 37.7226C20.7921 37.9169 22.6293 37.9169 24.9086 37.9168H26.7582C29.0375 37.9169 30.8747 37.9169 32.3196 37.7226C33.8198 37.5209 35.0829 37.0894 36.0861 36.0863C37.0893 35.0831 37.5208 33.8199 37.7225 32.3198C37.9168 30.8748 37.9167 29.0376 37.9167 26.7583V13.2421C37.9167 10.9627 37.9168 9.12553 37.7225 7.68058C37.5208 6.1804 37.0893 4.91728 36.0861 3.91408C35.0829 2.91089 33.8198 2.4794 32.3196 2.2777C30.8747 2.08344 29.0375 2.08346 26.7582 2.0835H24.9086Z" fill="#080808"/>
<path d="M24.9997 18.7502C25.69 18.7502 26.2497 19.3098 26.2497 20.0002C26.2497 20.6905 25.69 21.2502 24.9997 21.2502H6.71208L9.97983 24.0511C10.504 24.5004 10.5647 25.2895 10.1154 25.8137C9.66614 26.3378 8.87701 26.3985 8.35285 25.9492L2.51952 20.9492C2.24246 20.7118 2.08301 20.3651 2.08301 20.0002C2.08301 19.6353 2.24246 19.2886 2.51952 19.0511L8.35285 14.0511C8.87701 13.6018 9.66613 13.6625 10.1154 14.1867C10.5647 14.7108 10.504 15.5 9.97983 15.9492L6.71208 18.7502H24.9997Z" fill="#080808"/>
</svg>
