<svg width="40" height="40" viewBox="0 0 40 40" fill="none"
    xmlns="http://www.w3.org/2000/svg">
    <path fill-rule="evenodd" clip-rule="evenodd" d="M18.8195 5.51365C18.1632 6.37056 17.4225 7.69268 16.3466 9.62275L15.8005 10.6025C15.7675 10.6616 15.735 10.7201 15.7029 10.778C15.2016 11.68 14.7786 12.4413 14.0969 12.9588C13.4079 13.4818 12.5679 13.6706 11.5918 13.89C11.529 13.9041 11.4657 13.9183 11.4019 13.9328L10.3413 14.1727C8.24908 14.6461 6.82577 14.9718 5.85088 15.356C4.89955 15.7309 4.69873 16.0381 4.62219 16.2842C4.54141 16.544 4.53901 16.9414 5.10774 17.8448C5.68499 18.7618 6.65882 19.9055 8.08303 21.571L8.80607 22.4165C8.84809 22.4656 8.88973 22.5142 8.93095 22.5623C9.60264 23.3458 10.1627 23.9991 10.4196 24.8252C10.6749 25.6463 10.5903 26.5092 10.4877 27.5554C10.4814 27.6195 10.475 27.6844 10.4687 27.75L10.3594 28.8781C10.1442 31.0984 9.99915 32.6271 10.0482 33.7284C10.0972 34.8276 10.3293 35.1315 10.5139 35.2716C10.6781 35.3962 10.9816 35.5342 11.9703 35.2509C12.9751 34.963 14.3105 34.352 16.2695 33.45L17.2626 32.9928C17.3237 32.9646 17.3843 32.9366 17.4443 32.9089C18.3523 32.4891 19.1401 32.1249 19.9995 32.1249C20.859 32.1249 21.6467 32.4891 22.5547 32.9089C22.6148 32.9366 22.6754 32.9646 22.7365 32.9928L23.7295 33.45C25.6886 34.352 27.024 34.963 28.0288 35.2509C29.0175 35.5342 29.321 35.3962 29.4851 35.2716C29.6697 35.1315 29.9019 34.8276 29.9509 33.7284C29.9999 32.6271 29.8549 31.0984 29.6397 28.8781L29.5304 27.75C29.524 27.6844 29.5177 27.6196 29.5114 27.5554C29.4088 26.5092 29.3241 25.6463 29.5795 24.8252C29.8364 23.999 30.3964 23.3458 31.0681 22.5622C31.1094 22.5142 31.151 22.4656 31.193 22.4165L31.916 21.571C33.3403 19.9055 34.3141 18.7618 34.8913 17.8448C35.4601 16.9414 35.4577 16.544 35.3769 16.2842C35.3003 16.0381 35.0995 15.7309 34.1482 15.356C33.1733 14.9718 31.75 14.6461 29.6578 14.1727L28.5972 13.9328C28.5333 13.9183 28.47 13.9041 28.4073 13.89C27.4311 13.6706 26.5912 13.4818 25.9022 12.9588C25.2205 12.4413 24.7974 11.68 24.2962 10.778C24.264 10.7201 24.2315 10.6616 24.1986 10.6025L23.6524 9.62275C22.5765 7.69268 21.8358 6.37056 21.1796 5.51365C20.524 4.65755 20.1891 4.5835 19.9995 4.5835C19.8099 4.5835 19.4751 4.65755 18.8195 5.51365ZM16.8346 3.99366C17.6291 2.95621 18.611 2.0835 19.9995 2.0835C21.388 2.0835 22.37 2.95621 23.1645 3.99366C23.9451 5.01304 24.7729 6.4981 25.7846 8.3131L26.3822 9.38526C27.0365 10.5589 27.2038 10.8082 27.4138 10.9676C27.6158 11.121 27.8765 11.2065 29.1489 11.4944L30.3156 11.7584C32.275 12.2016 33.8892 12.5668 35.0648 13.0301C36.2851 13.511 37.353 14.2198 37.7641 15.5419C38.171 16.8503 37.7137 18.054 37.007 19.1767C36.3204 20.2675 35.2236 21.5499 33.8839 23.1165L33.093 24.0413C32.2313 25.0489 32.0513 25.2954 31.9667 25.5675C31.8804 25.845 31.8886 26.1655 32.0187 27.5089L32.1379 28.7391C32.3408 30.8324 32.5063 32.5395 32.4484 33.8397C32.3894 35.1629 32.0889 36.4337 30.9968 37.2628C29.8842 38.1074 28.5898 38.0122 27.3402 37.6542C26.1285 37.307 24.6179 36.6114 22.7837 35.7668L21.6909 35.2637C20.4954 34.7132 20.2394 34.6249 19.9995 34.6249C19.7597 34.6249 19.5037 34.7132 18.3081 35.2637L17.2154 35.7668C15.3811 36.6114 13.8706 37.307 12.6589 37.6541C11.4093 38.0122 10.1148 38.1074 9.00231 37.2628C7.91018 36.4337 7.60963 35.1629 7.55068 33.8397C7.49276 32.5395 7.65823 30.8324 7.86113 28.739L7.98034 27.5089C8.11051 26.1655 8.11862 25.845 8.03236 25.5675C7.94774 25.2954 7.76774 25.0489 6.90607 24.0413L6.11526 23.1165C4.77551 21.5499 3.67872 20.2675 2.99205 19.1767C2.28534 18.054 1.82808 16.8503 2.23495 15.5419C2.64607 14.2198 3.71396 13.511 4.93427 13.0301C6.10987 12.5668 7.72408 12.2016 9.68347 11.7584L9.78958 11.7344L10.8502 11.4944C12.1226 11.2065 12.3832 11.121 12.5853 10.9676C12.7952 10.8082 12.9626 10.5589 13.6168 9.38526L14.2145 8.31309C15.2262 6.4981 16.054 5.01304 16.8346 3.99366Z" fill="#080808"/>
</svg>
